<svg width="100%" height="100%" viewBox="0 0 137 40" fill="none" xmlns="http://www.w3.org/2000/svg">
<path d="M34.9544 35.3778C34.7511 39.8611 32.8838 40.9938 28.9553 39.1585C22.8901 36.3194 16.8248 36.3146 10.7548 39.1154C6.69398 40.989 4.90703 39.8993 4.69429 35.4017C0.0236251 34.9716 -0.931309 33.2462 1.01638 28.8586C3.75827 22.6882 3.61645 16.5751 0.709098 10.4716C-0.945491 6.99214 0.335633 4.96083 4.12228 4.82223C4.26883 4.81745 4.41065 4.75053 4.7132 4.67406C4.73211 4.34427 4.75102 3.97147 4.77466 3.59866C4.96848 0.362912 7.14781 -0.874989 10.2254 0.640126C16.4939 3.72771 22.7482 3.80418 29.0546 0.81219C32.8507 -0.989698 34.8315 0.295999 34.9402 4.73142C35.6871 4.78399 36.4671 4.74097 37.1999 4.91782C39.4785 5.47224 40.2869 7.68517 39.001 10.2757C36.6468 15.0266 36.1362 19.9638 37.2944 25.0923C37.6064 26.4688 38.1737 27.8023 38.7457 29.1071C40.5422 33.2366 39.5305 35.005 34.9544 35.3778ZM8.6464 30.8946C8.77404 31.0237 8.89695 31.1575 9.02459 31.2866C11.3977 29.2887 13.7756 27.3004 16.1393 25.2978C19.3114 22.6117 20.2758 22.6069 23.429 25.2548C25.717 27.1809 28.024 29.088 30.3262 31.0046C30.4586 30.8612 30.591 30.713 30.7281 30.5696C28.7284 28.156 26.7192 25.7423 24.729 23.3238C22.4882 20.5995 22.4882 19.4237 24.7337 16.6803C26.8091 14.1519 28.9033 11.6379 30.9881 9.11426C28.1138 10.8349 25.6225 12.9379 23.1217 15.0409C20.3845 17.3399 19.2547 17.3446 16.5506 15.0743C14.1727 13.0765 11.7996 11.0739 9.42169 9.07124C9.27514 9.21941 9.12387 9.36279 8.97732 9.51096C11.0006 11.9629 13.0334 14.4052 15.0426 16.8667C17.1274 19.419 17.1321 20.5852 15.0615 23.1183C12.9389 25.7232 10.7879 28.3041 8.6464 30.8946Z" fill="white"/>
<path d="M101.639 18.5968C103.469 19.7009 105.241 20.4704 106.645 21.6748C109.676 24.2749 110.56 27.6684 109.529 31.5685C108.536 35.3252 105.96 37.3995 102.315 37.7532C98.4244 38.1308 94.4865 38.0304 90.5675 38.083C87.0645 38.126 83.5615 38.0926 79.8835 37.8871C81.9352 36.7734 82.1196 35.0002 82.1196 33.0454C82.1102 24.2367 82.2189 15.4232 82.1432 6.6145C82.1291 5.13285 81.4247 3.65597 80.9898 1.97835C83.8026 1.97835 87.1921 1.94011 90.5816 1.98791C93.9476 2.04048 97.3371 1.97835 100.675 2.34637C104.135 2.72874 106.721 4.57842 107.492 8.26345C108.281 12.0393 106.811 14.9261 103.809 17.1199C103.119 17.6122 102.405 18.0711 101.639 18.5968ZM92.1795 18.9409C93.7301 18.4726 94.9545 18.1906 96.1127 17.7317C99.7292 16.2883 101.384 13.2246 100.694 9.39142C99.975 5.39094 97.8571 3.56994 93.7348 3.41699C92.8744 3.38353 91.929 3.19235 91.1726 3.47434C90.4966 3.72766 89.5416 4.52106 89.5274 5.09461C89.2674 14.8449 89.1492 24.5951 88.9696 34.3454C88.946 35.7076 89.4707 36.4819 90.8606 36.4628C93.2054 36.4293 95.6258 36.6874 97.8618 36.1712C99.3652 35.8223 101.076 34.637 101.894 33.3178C104.858 28.543 102.287 21.8708 96.992 20.1024C95.5218 19.6053 93.9665 19.3615 92.1795 18.9409Z" fill="white"/>
<path d="M46.4562 2.42284C52.5451 2.42284 59.3242 1.74414 65.9095 2.59968C73.8562 3.63206 78.9382 10.505 79.236 18.7163C79.5575 27.7305 74.9861 35.1962 67.6208 37.3709C65.848 37.8918 63.9193 38.0209 62.0567 38.0496C56.5918 38.1356 51.1269 38.0782 45.4966 37.8966C47.6617 36.783 47.7705 34.9142 47.761 32.9115C47.7185 24.1841 47.7941 15.4567 47.6617 6.72921C47.6334 5.19019 46.8203 3.66552 46.4562 2.42284ZM54.5874 19.6101C54.5117 19.6101 54.4361 19.6101 54.3605 19.6101C54.3605 21.909 54.3463 24.2128 54.3652 26.5117C54.3841 28.892 54.299 31.2817 54.5259 33.6428C54.6157 34.57 55.3059 36.0995 55.9158 36.2047C61.3286 37.1558 67.6681 36.6778 70.4572 30.1633C72.5515 25.2786 72.5657 20.3079 71.4736 15.2464C69.6914 7.00642 65.1389 3.38831 56.8612 3.4122C55.2587 3.41698 54.559 3.92361 54.5732 5.56778C54.611 10.2517 54.5874 14.9309 54.5874 19.6101Z" fill="white"/>
<path d="M111.467 36.9745C111.467 35.2395 111.467 33.2225 111.467 31.2055C112.706 33.6957 114.597 35.4928 117.197 35.9564C119.608 36.3913 122.198 36.5539 124.595 36.1476C128.056 35.5597 130.131 32.4148 130.079 28.8158C130.032 25.623 128.443 23.9072 124.77 22.8127C121.995 21.9858 119.159 21.2306 116.54 20.031C112.975 18.4011 110.867 15.4713 111.094 11.3609C111.335 7.07841 113.486 4.04818 117.556 2.58086C121.693 1.08486 125.914 1.53892 130.136 2.12202C131.582 2.32276 133.029 2.48527 134.665 2.69079C134.665 4.37319 134.665 6.23243 134.665 8.71779C132.358 3.97171 128.595 3.04448 124.312 3.39338C121.626 3.61324 119.518 4.8368 118.398 7.44165C117.088 10.4958 118.119 13.526 121.177 14.7257C123.796 15.7485 126.59 16.3029 129.285 17.1393C135.1 18.9508 137.662 23.0277 136.853 29.0739C136.192 34.0064 132.566 37.591 126.77 38.0642C123.002 38.3749 119.159 37.7009 115.348 37.4333C114.086 37.3377 112.833 37.137 111.467 36.9745Z" fill="white"/>
</svg>
