<svg width="100%" height="100%" viewBox="0 0 36 36" fill="none" xmlns="http://www.w3.org/2000/svg">
<g clip-path="url(#clip0_639_3428)">
<path d="M31.2136 34.1511H4.78613C3.87445 34.1511 3.00011 33.789 2.35545 33.1443C1.7108 32.4997 1.34863 31.6253 1.34863 30.7136V4.28613C1.34863 3.37445 1.7108 2.50011 2.35545 1.85545C3.00011 1.2108 3.87445 0.848633 4.78613 0.848633H31.2136C32.1253 0.848633 32.9997 1.2108 33.6443 1.85545C34.289 2.50011 34.6511 3.37445 34.6511 4.28613V21.2949C34.6511 21.6596 34.5063 22.0093 34.2484 22.2672C33.9905 22.525 33.6408 22.6699 33.2761 22.6699C32.9115 22.6699 32.5617 22.525 32.3039 22.2672C32.046 22.0093 31.9011 21.6596 31.9011 21.2949V4.28613C31.9011 4.1038 31.8287 3.92893 31.6998 3.8C31.5708 3.67107 31.396 3.59863 31.2136 3.59863H4.78613C4.6038 3.59863 4.42893 3.67107 4.3 3.8C4.17107 3.92893 4.09863 4.1038 4.09863 4.28613V30.7136C4.09863 30.896 4.17107 31.0708 4.3 31.1998C4.42893 31.3287 4.6038 31.4011 4.78613 31.4011H31.2136C31.396 31.4011 31.5708 31.3287 31.6998 31.1998C31.8287 31.0708 31.9011 30.896 31.9011 30.7136V26.9049C31.9011 26.5402 32.046 26.1905 32.3039 25.9326C32.5617 25.6747 32.9115 25.5299 33.2761 25.5299C33.6408 25.5299 33.9905 25.6747 34.2484 25.9326C34.5063 26.1905 34.6511 26.5402 34.6511 26.9049V30.7136C34.6511 31.6253 34.289 32.4997 33.6443 33.1443C32.9997 33.789 32.1253 34.1511 31.2136 34.1511Z" fill="black"/>
<path d="M11.7646 15.4929C11.4 15.4929 11.0502 15.3481 10.7924 15.0902C10.5345 14.8323 10.3896 14.4826 10.3896 14.1179V6.94043C10.3896 6.57576 10.5345 6.22602 10.7924 5.96816C11.0502 5.71029 11.4 5.56543 11.7646 5.56543C12.1293 5.56543 12.4791 5.71029 12.7369 5.96816C12.9948 6.22602 13.1396 6.57576 13.1396 6.94043V14.1179C13.1396 14.4826 12.9948 14.8323 12.7369 15.0902C12.4791 15.3481 12.1293 15.4929 11.7646 15.4929ZM25.1503 20.8348C24.7886 20.8315 24.4428 20.6857 24.1878 20.4292C24.0574 20.3052 23.9544 20.1553 23.8853 19.9892C23.8163 19.8213 23.7812 19.6413 23.7821 19.4598C23.772 19.3707 23.772 19.2808 23.7821 19.1917C23.8001 19.1026 23.8254 19.0153 23.8578 18.9304C23.8945 18.8489 23.9382 18.7707 23.9884 18.6967C24.0905 18.5488 24.2186 18.4207 24.3665 18.3186C24.4405 18.2644 24.5214 18.2204 24.6071 18.1879C24.6885 18.1524 24.774 18.127 24.8615 18.1123C25.083 18.0689 25.3117 18.0808 25.5275 18.1467C25.7434 18.2126 25.9396 18.3307 26.099 18.4904C26.1655 18.5509 26.2234 18.6203 26.2709 18.6967C26.3211 18.7707 26.3648 18.8489 26.4015 18.9304C26.4371 19.0142 26.4624 19.1019 26.4771 19.1917C26.4873 19.2808 26.4873 19.3707 26.4771 19.4598C26.4781 19.6413 26.443 19.8213 26.374 19.9892C26.2268 20.32 25.9623 20.5845 25.6315 20.7317C25.4786 20.7947 25.3156 20.8297 25.1503 20.8348ZM25.1503 29.0023C24.7856 29.0023 24.4359 28.8574 24.178 28.5996C23.9201 28.3417 23.7753 27.992 23.7753 27.6273C23.7651 27.5382 23.7651 27.4483 23.7753 27.3592C23.7932 27.2724 23.8185 27.1873 23.8509 27.1048C23.8863 27.0205 23.9301 26.9398 23.9815 26.8642C24.0836 26.7163 24.2118 26.5882 24.3596 26.4861C24.4353 26.4346 24.5159 26.3909 24.6003 26.3554C24.6828 26.323 24.7679 26.2977 24.8546 26.2798C25.0761 26.2364 25.3048 26.2483 25.5207 26.3142C25.7365 26.3801 25.9327 26.4982 26.0921 26.6579C26.1587 26.7184 26.2165 26.7878 26.264 26.8642C26.3155 26.9398 26.3592 27.0205 26.3946 27.1048C26.4302 27.1862 26.4556 27.2716 26.4703 27.3592C26.4804 27.4483 26.4804 27.5382 26.4703 27.6273C26.4687 27.9914 26.3229 28.34 26.0646 28.5967C25.9406 28.727 25.7908 28.8301 25.6246 28.8992C25.4739 28.9614 25.3133 28.9963 25.1503 29.0023Z" fill="#FF5B00"/>
<path d="M28.7386 11.9033H21.5611C21.1964 11.9033 20.8467 11.7585 20.5888 11.5006C20.331 11.2427 20.1861 10.893 20.1861 10.5283C20.1861 10.1636 20.331 9.81391 20.5888 9.55605C20.8467 9.29818 21.1964 9.15332 21.5611 9.15332H28.7386C29.1033 9.15332 29.453 9.29818 29.7109 9.55605C29.9687 9.81391 30.1136 10.1636 30.1136 10.5283C30.1136 10.893 29.9687 11.2427 29.7109 11.5006C29.453 11.7585 29.1033 11.9033 28.7386 11.9033ZM14.3011 27.9496C13.938 27.9499 13.5895 27.8065 13.3317 27.5508L8.25797 22.4702C8.11403 22.3469 7.99713 22.1952 7.91459 22.0247C7.83206 21.8541 7.78568 21.6683 7.77837 21.4789C7.77105 21.2895 7.80296 21.1007 7.87209 20.9243C7.94122 20.7478 8.04607 20.5876 8.18007 20.4536C8.31407 20.3196 8.47433 20.2147 8.65077 20.1456C8.82722 20.0764 9.01605 20.0445 9.20542 20.0518C9.39478 20.0592 9.58059 20.1055 9.75118 20.1881C9.92176 20.2706 10.0735 20.3875 10.1967 20.5314L15.2498 25.6052C15.4414 25.7979 15.5716 26.043 15.6239 26.3096C15.6763 26.5762 15.6485 26.8523 15.544 27.1032C15.4396 27.354 15.2632 27.5682 15.0371 27.7189C14.811 27.8695 14.5453 27.9498 14.2736 27.9496H14.3011Z" fill="black"/>
<path d="M9.22763 27.9498C8.95652 27.9487 8.6918 27.8674 8.46674 27.7162C8.24168 27.5651 8.06633 27.3508 7.96274 27.1002C7.85914 26.8497 7.83193 26.5741 7.88451 26.3082C7.93709 26.0422 8.06712 25.7977 8.25825 25.6054L13.332 20.5317C13.4522 20.3775 13.6038 20.2507 13.7768 20.1598C13.9499 20.0689 14.1403 20.0159 14.3354 20.0043C14.5306 19.9928 14.7259 20.023 14.9084 20.093C15.091 20.1629 15.2565 20.2709 15.394 20.4099C15.5314 20.5488 15.6377 20.7155 15.7057 20.8988C15.7737 21.082 15.8018 21.2777 15.7882 21.4727C15.7746 21.6677 15.7195 21.8575 15.6267 22.0296C15.534 22.2016 15.4056 22.3519 15.2501 22.4704L10.1695 27.5511C9.9185 27.8001 9.58118 27.9429 9.22763 27.9498Z" fill="black"/>
<path d="M15.3533 11.9033H8.17578C7.81111 11.9033 7.46137 11.7585 7.20351 11.5006C6.94565 11.2427 6.80078 10.893 6.80078 10.5283C6.80078 10.1636 6.94565 9.81391 7.20351 9.55605C7.46137 9.29818 7.81111 9.15332 8.17578 9.15332H15.3533C15.718 9.15332 16.0677 9.29818 16.3256 9.55605C16.5834 9.81391 16.7283 10.1636 16.7283 10.5283C16.7283 10.893 16.5834 11.2427 16.3256 11.5006C16.0677 11.7585 15.718 11.9033 15.3533 11.9033ZM28.7389 24.9796H21.5614C21.1967 24.9796 20.847 24.8347 20.5891 24.5768C20.3313 24.319 20.1864 23.9692 20.1864 23.6046C20.1864 23.2399 20.3313 22.8902 20.5891 22.6323C20.847 22.3744 21.1967 22.2296 21.5614 22.2296H28.7389C29.1036 22.2296 29.4533 22.3744 29.7112 22.6323C29.969 22.8902 30.1139 23.2399 30.1139 23.6046C30.1139 23.9692 29.969 24.319 29.7112 24.5768C29.4533 24.8347 29.1036 24.9796 28.7389 24.9796Z" fill="#FF5B00"/>
</g>
<defs>
<clipPath id="clip0_639_3428">
<rect width="36" height="36" fill="white"/>
</clipPath>
</defs>
</svg>
