<svg width="100%" height="100%" viewBox="0 0 36 36" fill="none" xmlns="http://www.w3.org/2000/svg">
<path d="M2.16699 13.8337H33.8337M2.16699 13.8337V32.167C2.16699 32.609 2.34259 33.0329 2.65515 33.3455C2.96771 33.6581 3.39163 33.8337 3.83366 33.8337H32.167C32.609 33.8337 33.0329 33.6581 33.3455 33.3455C33.6581 33.0329 33.8337 32.609 33.8337 32.167V13.8337M2.16699 13.8337V6.33366C2.16699 5.89163 2.34259 5.46771 2.65515 5.15515C2.96771 4.84259 3.39163 4.66699 3.83366 4.66699H32.167C32.609 4.66699 33.0329 4.84259 33.3455 5.15515C33.6581 5.46771 33.8337 5.89163 33.8337 6.33366V13.8337" stroke="black" stroke-width="2.5" stroke-linejoin="round"/>
<path d="M11.334 23.834L16.334 28.834L26.334 18.834" stroke="#FF5B00" stroke-width="2.5" stroke-linecap="round" stroke-linejoin="round"/>
<path d="M11.334 2.16699V8.83366M24.6673 2.16699V8.83366" stroke="black" stroke-width="2.5" stroke-linecap="round"/>
</svg>
