<svg width="100%" height="100%" viewBox="0 0 40 40" fill="none" xmlns="http://www.w3.org/2000/svg">
<path d="M4.5 7.5V28.5V30.4687V32.8459L6.1993 31.1836L7.92029 29.5H33.5H34.5V28.5V7.5V6.5H33.5H5.5H4.5V7.5ZM9 31H8.58579L8.29289 31.2929L4.2679 35.3179C4.10123 35.4845 3.97545 35.536 3.89125 35.5524C3.80772 35.5688 3.67515 35.5685 3.46402 35.4782C3.25299 35.388 3.15566 35.2903 3.10438 35.2117C3.05246 35.1321 2.99965 34.9983 3 34.7577V34.7562V7.5C3 6.80512 3.23591 6.23545 3.73551 5.73671C4.23593 5.23713 4.80654 5.00097 5.50067 5H33.5C34.1949 5 34.7655 5.23597 35.2656 5.73611C35.7657 6.23621 36.0008 6.80582 36 7.49879V7.5V28.5C36 29.1955 35.7642 29.7662 35.265 30.2662C34.7668 30.7653 34.1972 31.0008 33.5012 31H33.5H9ZM10.75 24L10.7453 24C10.5082 24.0011 10.3523 23.9319 10.2111 23.7906C10.0698 23.6493 9.99943 23.4921 10 23.2524C10.0006 23.0089 10.0724 22.8503 10.2123 22.7099C10.3503 22.5715 10.5066 22.5 10.75 22.5H21.25C21.4934 22.5 21.6497 22.5715 21.7877 22.7099C21.9276 22.8503 21.9994 23.0089 22 23.2524C22.0006 23.4932 21.9301 23.6494 21.7906 23.7889C21.6511 23.9285 21.4935 24 21.25 24L10.75 24ZM10.75 18.75L10.7453 18.75C10.5082 18.7511 10.3523 18.6819 10.2111 18.5406C10.0698 18.3993 9.99943 18.2421 10 18.0024C10.0006 17.7589 10.0724 17.6003 10.2123 17.4599C10.3503 17.3215 10.5066 17.25 10.75 17.25H28.25C28.4934 17.25 28.6497 17.3215 28.7877 17.4599C28.9276 17.6003 28.9994 17.7589 29 18.0024C29.0006 18.2432 28.9301 18.3994 28.7906 18.5389C28.6511 18.6785 28.4935 18.75 28.25 18.75L10.75 18.75ZM10.75 13.5L10.7453 13.5C10.5082 13.5011 10.3523 13.4319 10.2111 13.2906C10.0698 13.1493 9.99943 12.9921 10 12.7524C10.0006 12.5089 10.0724 12.3503 10.2123 12.2099C10.3503 12.0715 10.5066 12 10.75 12H28.25C28.4934 12 28.6497 12.0715 28.7877 12.2099C28.9276 12.3503 28.9994 12.5089 29 12.7524C29.0006 12.9932 28.9301 13.1494 28.7906 13.2889C28.6511 13.4285 28.4935 13.5 28.25 13.5L10.75 13.5Z" stroke="black" stroke-width="2"/>
<path d="M10.751 23.251H22.126" stroke="#FF5B00" stroke-width="3.5" stroke-linecap="round"/>
<path d="M10.751 18.001H28.251" stroke="#FF5B00" stroke-width="3.5" stroke-linecap="round"/>
<path d="M10.751 12.751H28.251" stroke="#FF5B00" stroke-width="3.5" stroke-linecap="round"/>
</svg>
