<svg width="36" height="35" viewBox="0 0 36 35" fill="none" xmlns="http://www.w3.org/2000/svg">
<mask id="path-1-inside-1_510_9418" fill="white">
<path d="M17.1594 33.0001C16.5003 33.0001 15.6679 32.7824 14.0008 31.8873C13.0543 31.3778 12.1401 30.8131 11.2634 30.1962L7.39233 31.3281C7.2868 31.3589 7.17533 31.365 7.06693 31.346C6.95852 31.327 6.85623 31.2833 6.76833 31.2186C4.68163 29.6869 3.05367 27.6384 2.05359 25.2858C2.01086 25.1854 1.99328 25.0765 2.0023 24.9681C2.01133 24.8597 2.04671 24.755 2.10551 24.6626C2.1643 24.5703 2.24482 24.4929 2.3404 24.4369C2.43598 24.3809 2.54387 24.3479 2.65513 24.3407C4.68742 24.2169 6.67841 23.7258 8.52662 22.8925C9.1684 22.6008 9.78976 22.2681 10.3867 21.8967C11.213 21.3316 12.087 20.8357 12.9992 20.4144C13.5618 20.1753 14.1378 19.9673 14.7245 19.7916C14.7771 19.7779 14.8656 19.7547 14.98 19.7218L15.0972 19.6862C15.2102 19.652 15.3148 19.6198 15.564 19.5562C15.8005 19.4966 16.1185 19.4214 16.5116 19.3427C17.4019 19.1346 18.3198 19.0616 19.2329 19.1264C19.6409 19.1556 20.0446 19.2265 20.4374 19.3379C20.9582 19.4898 21.425 19.6753 21.8763 19.8539C22.3611 20.0564 22.8572 20.2323 23.3622 20.3809C23.7976 20.5024 24.2444 20.581 24.6959 20.6156C25.143 20.6573 25.6996 20.7094 25.9411 21.2856C26.0132 21.4805 26.0389 21.6888 26.0161 21.8948C25.9934 22.1007 25.9228 22.2989 25.8098 22.4744C25.502 23.0584 25.0008 23.5239 24.3876 23.7954C23.7744 24.0668 23.085 24.1283 22.4315 23.9697C22.2378 23.941 22.0616 23.9081 21.8994 23.8712C22.1407 24.0401 22.3935 24.1929 22.6561 24.3283C23.6502 24.8391 24.7615 25.0942 25.8849 25.0695L28.0047 25.0688C28.1783 25.069 28.3458 25.1319 28.4747 25.2454C28.6035 25.3589 28.6847 25.515 28.7024 25.6834C28.7722 26.2364 28.6733 26.7972 28.4181 27.2958C27.7513 28.5564 26.0807 29.197 24.1982 28.9369C22.7619 30.0281 21.287 31.0702 19.7762 32.0611C19.0651 32.5942 18.2129 32.9185 17.3195 32.996C17.2662 32.9986 17.2128 33 17.1594 33.0001ZM11.396 28.7583C11.5465 28.7584 11.6929 28.8057 11.8137 28.8931C12.7261 29.5532 13.6828 30.1529 14.6775 30.6882C16.5024 31.6676 17.0043 31.6409 17.2451 31.6293C17.8848 31.5622 18.4914 31.3175 18.9928 30.9244C20.561 29.8959 22.0898 28.8115 23.5763 27.6736C23.6554 27.6129 23.7471 27.5696 23.845 27.5467C23.9429 27.5238 24.0447 27.5218 24.1435 27.5408C25.4939 27.7968 26.7672 27.4299 27.1701 26.6689C27.2091 26.5951 27.2401 26.5176 27.2628 26.4376H25.9017C24.5909 26.466 23.2932 26.1786 22.1236 25.6008C20.954 25.023 19.9488 24.1726 19.1971 23.1252C18.8968 23.1054 18.5954 23.1056 18.2951 23.1259C18.1688 23.1348 18.0635 23.1451 17.9933 23.1533C17.8084 23.1741 17.6225 23.1225 17.4766 23.0098C17.3306 22.897 17.2366 22.7324 17.2152 22.552C17.1938 22.3717 17.2468 22.1905 17.3624 22.0482C17.478 21.9059 17.6469 21.8143 17.8319 21.7934C17.9161 21.7838 18.0424 21.7715 18.1983 21.7606C18.6882 21.7281 19.1801 21.7389 19.6681 21.7927L19.6814 21.7941C20.1991 21.8584 20.7044 21.996 21.1814 22.2027C21.6487 22.402 22.1407 22.5411 22.6449 22.6167C22.8955 22.6791 23.1558 22.6961 23.4128 22.6667C23.8402 22.5597 24.2176 22.3143 24.4832 21.9707C23.9728 21.9267 23.4679 21.835 22.9755 21.6969C22.4221 21.535 21.8785 21.3431 21.347 21.122C20.9069 20.9468 20.4914 20.7826 20.0345 20.6491C19.735 20.5647 19.4273 20.5115 19.1164 20.4904C18.3361 20.4385 17.5523 20.5038 16.7923 20.684C16.4287 20.7566 16.1346 20.8264 15.9163 20.8811C15.7023 20.9359 15.6131 20.9633 15.5163 20.992L15.3822 21.0331C15.2488 21.0714 15.1456 21.0988 15.1035 21.109C14.5847 21.2668 14.0749 21.4514 13.5762 21.662C12.7374 22.0527 11.9333 22.5105 11.1721 23.0308C10.5137 23.4423 9.82783 23.8104 9.11903 24.1326C7.42128 24.9005 5.60937 25.4011 3.75081 25.6157C4.61138 27.2855 5.83432 28.7528 7.33477 29.9156L11.1946 28.7877C11.2599 28.7686 11.3278 28.7583 11.396 28.7583Z"/>
</mask>
<path d="M17.1594 33.0001C16.5003 33.0001 15.6679 32.7824 14.0008 31.8873C13.0543 31.3778 12.1401 30.8131 11.2634 30.1962L7.39233 31.3281C7.2868 31.3589 7.17533 31.365 7.06693 31.346C6.95852 31.327 6.85623 31.2833 6.76833 31.2186C4.68163 29.6869 3.05367 27.6384 2.05359 25.2858C2.01086 25.1854 1.99328 25.0765 2.0023 24.9681C2.01133 24.8597 2.04671 24.755 2.10551 24.6626C2.1643 24.5703 2.24482 24.4929 2.3404 24.4369C2.43598 24.3809 2.54387 24.3479 2.65513 24.3407C4.68742 24.2169 6.67841 23.7258 8.52662 22.8925C9.1684 22.6008 9.78976 22.2681 10.3867 21.8967C11.213 21.3316 12.087 20.8357 12.9992 20.4144C13.5618 20.1753 14.1378 19.9673 14.7245 19.7916C14.7771 19.7779 14.8656 19.7547 14.98 19.7218L15.0972 19.6862C15.2102 19.652 15.3148 19.6198 15.564 19.5562C15.8005 19.4966 16.1185 19.4214 16.5116 19.3427C17.4019 19.1346 18.3198 19.0616 19.2329 19.1264C19.6409 19.1556 20.0446 19.2265 20.4374 19.3379C20.9582 19.4898 21.425 19.6753 21.8763 19.8539C22.3611 20.0564 22.8572 20.2323 23.3622 20.3809C23.7976 20.5024 24.2444 20.581 24.6959 20.6156C25.143 20.6573 25.6996 20.7094 25.9411 21.2856C26.0132 21.4805 26.0389 21.6888 26.0161 21.8948C25.9934 22.1007 25.9228 22.2989 25.8098 22.4744C25.502 23.0584 25.0008 23.5239 24.3876 23.7954C23.7744 24.0668 23.085 24.1283 22.4315 23.9697C22.2378 23.941 22.0616 23.9081 21.8994 23.8712C22.1407 24.0401 22.3935 24.1929 22.6561 24.3283C23.6502 24.8391 24.7615 25.0942 25.8849 25.0695L28.0047 25.0688C28.1783 25.069 28.3458 25.1319 28.4747 25.2454C28.6035 25.3589 28.6847 25.515 28.7024 25.6834C28.7722 26.2364 28.6733 26.7972 28.4181 27.2958C27.7513 28.5564 26.0807 29.197 24.1982 28.9369C22.7619 30.0281 21.287 31.0702 19.7762 32.0611C19.0651 32.5942 18.2129 32.9185 17.3195 32.996C17.2662 32.9986 17.2128 33 17.1594 33.0001ZM11.396 28.7583C11.5465 28.7584 11.6929 28.8057 11.8137 28.8931C12.7261 29.5532 13.6828 30.1529 14.6775 30.6882C16.5024 31.6676 17.0043 31.6409 17.2451 31.6293C17.8848 31.5622 18.4914 31.3175 18.9928 30.9244C20.561 29.8959 22.0898 28.8115 23.5763 27.6736C23.6554 27.6129 23.7471 27.5696 23.845 27.5467C23.9429 27.5238 24.0447 27.5218 24.1435 27.5408C25.4939 27.7968 26.7672 27.4299 27.1701 26.6689C27.2091 26.5951 27.2401 26.5176 27.2628 26.4376H25.9017C24.5909 26.466 23.2932 26.1786 22.1236 25.6008C20.954 25.023 19.9488 24.1726 19.1971 23.1252C18.8968 23.1054 18.5954 23.1056 18.2951 23.1259C18.1688 23.1348 18.0635 23.1451 17.9933 23.1533C17.8084 23.1741 17.6225 23.1225 17.4766 23.0098C17.3306 22.897 17.2366 22.7324 17.2152 22.552C17.1938 22.3717 17.2468 22.1905 17.3624 22.0482C17.478 21.9059 17.6469 21.8143 17.8319 21.7934C17.9161 21.7838 18.0424 21.7715 18.1983 21.7606C18.6882 21.7281 19.1801 21.7389 19.6681 21.7927L19.6814 21.7941C20.1991 21.8584 20.7044 21.996 21.1814 22.2027C21.6487 22.402 22.1407 22.5411 22.6449 22.6167C22.8955 22.6791 23.1558 22.6961 23.4128 22.6667C23.8402 22.5597 24.2176 22.3143 24.4832 21.9707C23.9728 21.9267 23.4679 21.835 22.9755 21.6969C22.4221 21.535 21.8785 21.3431 21.347 21.122C20.9069 20.9468 20.4914 20.7826 20.0345 20.6491C19.735 20.5647 19.4273 20.5115 19.1164 20.4904C18.3361 20.4385 17.5523 20.5038 16.7923 20.684C16.4287 20.7566 16.1346 20.8264 15.9163 20.8811C15.7023 20.9359 15.6131 20.9633 15.5163 20.992L15.3822 21.0331C15.2488 21.0714 15.1456 21.0988 15.1035 21.109C14.5847 21.2668 14.0749 21.4514 13.5762 21.662C12.7374 22.0527 11.9333 22.5105 11.1721 23.0308C10.5137 23.4423 9.82783 23.8104 9.11903 24.1326C7.42128 24.9005 5.60937 25.4011 3.75081 25.6157C4.61138 27.2855 5.83432 28.7528 7.33477 29.9156L11.1946 28.7877C11.2599 28.7686 11.3278 28.7583 11.396 28.7583Z" fill="black"/>
<path d="M17.1594 33.0001L17.1594 34.0001L17.1612 34.0001L17.1594 33.0001ZM14.0008 31.8873L13.5269 32.7678L13.5277 32.7683L14.0008 31.8873ZM11.2634 30.1962L11.8388 29.3783L11.4449 29.1012L10.9827 29.2364L11.2634 30.1962ZM7.39233 31.3281L7.6722 32.2882L7.67299 32.2879L7.39233 31.3281ZM6.76833 31.2186L7.36115 30.4133L7.36006 30.4125L6.76833 31.2186ZM2.05359 25.2858L2.97389 24.8946L2.97374 24.8942L2.05359 25.2858ZM2.65513 24.3407L2.59434 23.3425L2.59013 23.3428L2.65513 24.3407ZM8.52662 22.8925L8.93765 23.8041L8.94044 23.8029L8.52662 22.8925ZM10.3867 21.8967L10.915 22.7458L10.9333 22.7344L10.9512 22.7222L10.3867 21.8967ZM12.9992 20.4144L12.608 19.4941L12.5938 19.5001L12.5799 19.5066L12.9992 20.4144ZM14.7245 19.7916L14.4729 18.8238L14.4551 18.8284L14.4376 18.8337L14.7245 19.7916ZM14.98 19.7218L15.256 20.683L15.2632 20.6809L15.2705 20.6787L14.98 19.7218ZM15.0972 19.6862L14.8074 18.7291L14.8067 18.7293L15.0972 19.6862ZM15.564 19.5562L15.3199 18.5864L15.3165 18.5873L15.564 19.5562ZM16.5116 19.3427L16.7079 20.3232L16.7236 20.3201L16.7392 20.3164L16.5116 19.3427ZM19.2329 19.1264L19.3043 18.1289L19.3036 18.1289L19.2329 19.1264ZM20.4374 19.3379L20.7174 18.3779L20.7102 18.3758L20.4374 19.3379ZM21.8763 19.8539L22.2617 18.9311L22.253 18.9275L22.2443 18.9241L21.8763 19.8539ZM23.3622 20.3809L23.0801 21.3403L23.0934 21.344L23.3622 20.3809ZM24.6959 20.6156L24.7888 19.6199L24.7805 19.6192L24.7722 19.6185L24.6959 20.6156ZM25.9411 21.2856L26.8788 20.9384L26.8715 20.9186L26.8634 20.8991L25.9411 21.2856ZM25.8098 22.4744L24.9692 21.9327L24.9455 21.9695L24.9251 22.0081L25.8098 22.4744ZM22.4315 23.9697L22.6672 22.9979L22.6231 22.9872L22.5783 22.9806L22.4315 23.9697ZM21.8994 23.8712L22.1217 22.8962L21.3258 24.6903L21.8994 23.8712ZM22.6561 24.3283L22.1977 25.2171L22.1991 25.2178L22.6561 24.3283ZM25.8849 25.0695L25.8846 24.0695L25.8737 24.0695L25.8629 24.0698L25.8849 25.0695ZM28.0047 25.0688L28.0054 24.0688L28.0043 24.0688L28.0047 25.0688ZM28.7024 25.6834L27.7079 25.788L27.7089 25.7983L27.7102 25.8086L28.7024 25.6834ZM28.4181 27.2958L29.3021 27.7634L29.3083 27.7514L28.4181 27.2958ZM24.1982 28.9369L24.335 27.9463L23.9238 27.8895L23.5932 28.1407L24.1982 28.9369ZM19.7762 32.0611L19.2277 31.2249L19.2015 31.2421L19.1763 31.261L19.7762 32.0611ZM17.3195 32.996L17.369 33.9947L17.3875 33.9938L17.4059 33.9922L17.3195 32.996ZM11.396 28.7583L11.397 27.7583L11.3967 27.7583L11.396 28.7583ZM11.8137 28.8931L11.2274 29.7033L11.2275 29.7033L11.8137 28.8931ZM14.6775 30.6882L14.2035 31.5688L14.2046 31.5694L14.6775 30.6882ZM17.2451 31.6293L17.2933 32.6281L17.3214 32.6267L17.3494 32.6238L17.2451 31.6293ZM18.9928 30.9244L18.4444 30.0882L18.4091 30.1113L18.3758 30.1374L18.9928 30.9244ZM23.5763 27.6736L24.1842 28.4676L24.1848 28.4671L23.5763 27.6736ZM24.1435 27.5408L23.9542 28.5227L23.9572 28.5233L24.1435 27.5408ZM27.1701 26.6689L28.0539 27.1368L28.0545 27.1357L27.1701 26.6689ZM27.2628 26.4376L28.2249 26.71L28.5852 25.4376H27.2628V26.4376ZM25.9017 26.4376V25.4376H25.8909L25.88 25.4378L25.9017 26.4376ZM19.1971 23.1252L20.0095 22.5421L19.7341 22.1584L19.2629 22.1274L19.1971 23.1252ZM18.2951 23.1259L18.2278 22.1282L18.2249 22.1284L18.2951 23.1259ZM17.9933 23.1533L18.1055 24.147L18.1095 24.1465L17.9933 23.1533ZM17.8319 21.7934L17.944 22.7871L17.9449 22.787L17.8319 21.7934ZM18.1983 21.7606L18.1322 20.7627L18.1282 20.763L18.1983 21.7606ZM19.6681 21.7927L19.5584 22.7867L19.566 22.7875L19.6681 21.7927ZM19.6814 21.7941L19.8046 20.8017L19.7941 20.8004L19.7834 20.7993L19.6814 21.7941ZM21.1814 22.2027L20.7838 23.1203L20.7891 23.1225L21.1814 22.2027ZM22.6449 22.6167L22.8865 21.6463L22.8402 21.6348L22.7931 21.6278L22.6449 22.6167ZM23.4128 22.6667L23.5264 23.6602L23.5917 23.6527L23.6555 23.6368L23.4128 22.6667ZM24.4832 21.9707L25.2745 22.5821L26.3951 21.1318L24.5691 20.9744L24.4832 21.9707ZM22.9755 21.6969L22.6946 22.6567L22.7055 22.6598L22.9755 21.6969ZM21.347 21.122L21.7311 20.1987L21.724 20.1958L21.7169 20.1929L21.347 21.122ZM20.0345 20.6491L20.3148 19.6892L20.3057 19.6866L20.0345 20.6491ZM19.1164 20.4904L19.1843 19.4927L19.1827 19.4926L19.1164 20.4904ZM16.7923 20.684L16.988 21.6647L17.0056 21.6612L17.0231 21.657L16.7923 20.684ZM15.9163 20.8811L15.6731 19.9112L15.6686 19.9123L15.9163 20.8811ZM15.5163 20.992L15.2318 20.0333L15.2234 20.0358L15.5163 20.992ZM15.3822 21.0331L15.6584 21.9942L15.6667 21.9918L15.675 21.9892L15.3822 21.0331ZM15.1035 21.109L14.8667 20.1375L14.8394 20.1441L14.8126 20.1523L15.1035 21.109ZM13.5762 21.662L13.1871 20.7408L13.1704 20.7479L13.1539 20.7555L13.5762 21.662ZM11.1721 23.0308L11.7021 23.8787L11.7195 23.8679L11.7364 23.8563L11.1721 23.0308ZM9.11903 24.1326L9.53115 25.0437L9.53288 25.043L9.11903 24.1326ZM3.75081 25.6157L3.63613 24.6222L2.19935 24.7881L2.86191 26.0738L3.75081 25.6157ZM7.33477 29.9156L6.72221 30.706L7.1255 31.0186L7.61525 30.8754L7.33477 29.9156ZM11.1946 28.7877L11.4751 29.7476L11.4752 29.7476L11.1946 28.7877ZM17.1594 32.0001C16.7534 32.0001 16.1004 31.8796 14.4739 31.0063L13.5277 32.7683C15.2354 33.6852 16.2472 34.0001 17.1594 34.0001V32.0001ZM14.4748 31.0067C13.5632 30.5161 12.6829 29.9723 11.8388 29.3783L10.6879 31.014C11.5973 31.6539 12.5454 32.2395 13.5269 32.7678L14.4748 31.0067ZM10.9827 29.2364L7.11166 30.3683L7.67299 32.2879L11.544 31.156L10.9827 29.2364ZM7.11245 30.3681C7.15414 30.356 7.19755 30.3536 7.23977 30.361L6.89409 32.3309C7.1531 32.3764 7.41946 32.3619 7.6722 32.2882L7.11245 30.3681ZM7.23977 30.361C7.28203 30.3685 7.32373 30.3858 7.36115 30.4133L6.17551 32.024C6.38874 32.1809 6.63502 32.2855 6.89409 32.3309L7.23977 30.361ZM7.36006 30.4125C5.41624 28.9857 3.90277 27.0797 2.97389 24.8946L1.13329 25.677C2.20457 28.1971 3.94702 30.3882 6.1766 32.0248L7.36006 30.4125ZM2.97374 24.8942C2.99444 24.9429 3.00338 24.9968 2.99885 25.0511L1.00576 24.8851C0.983176 25.1561 1.02727 25.4279 1.13343 25.6773L2.97374 24.8942ZM2.99885 25.0511C2.99433 25.1054 2.97669 25.1563 2.94913 25.1996L1.26188 24.1257C1.11673 24.3538 1.02834 24.6141 1.00576 24.8851L2.99885 25.0511ZM2.94913 25.1996C2.92165 25.2428 2.88563 25.2764 2.84589 25.2997L1.83492 23.5741C1.60402 23.7093 1.40695 23.8978 1.26188 24.1257L2.94913 25.1996ZM2.84589 25.2997C2.80626 25.3229 2.76317 25.3357 2.72012 25.3385L2.59013 23.3428C2.32457 23.3601 2.06571 23.4388 1.83492 23.5741L2.84589 25.2997ZM2.71591 25.3388C4.86871 25.2077 6.97842 24.6875 8.93765 23.8041L8.11559 21.9809C6.3784 22.7642 4.50614 23.2261 2.59434 23.3425L2.71591 25.3388ZM8.94044 23.8029C9.62155 23.4933 10.2812 23.1402 10.915 22.7458L9.85841 21.0477C9.29837 21.3961 8.71524 21.7083 8.11279 21.9822L8.94044 23.8029ZM10.9512 22.7222C11.7314 22.1886 12.5567 21.7203 13.4185 21.3222L12.5799 19.5066C11.6173 19.9512 10.6947 20.4746 9.82219 21.0713L10.9512 22.7222ZM13.3904 21.3347C13.9189 21.1101 14.4601 20.9147 15.0114 20.7496L14.4376 18.8337C13.8155 19.02 13.2047 19.2404 12.608 19.4941L13.3904 21.3347ZM14.9761 20.7594C15.0331 20.7446 15.1304 20.719 15.256 20.683L14.704 18.7606C14.6008 18.7903 14.5212 18.8112 14.4729 18.8238L14.9761 20.7594ZM15.2705 20.6787L15.3877 20.6431L14.8067 18.7293L14.6895 18.7649L15.2705 20.6787ZM15.387 20.6433C15.4924 20.6114 15.5818 20.5838 15.8115 20.5251L15.3165 18.5873C15.0479 18.6559 14.928 18.6926 14.8074 18.7291L15.387 20.6433ZM15.8081 20.5259C16.0319 20.4696 16.3337 20.3981 16.7079 20.3232L16.3152 18.3621C15.9033 18.4446 15.5692 18.5237 15.3199 18.5864L15.8081 20.5259ZM16.7392 20.3164C17.5316 20.1312 18.349 20.0662 19.1621 20.1239L19.3036 18.1289C18.2906 18.057 17.2721 18.138 16.284 18.3689L16.7392 20.3164ZM19.1615 20.1238C19.5014 20.1482 19.8376 20.2072 20.1646 20.2999L20.7102 18.3758C20.2515 18.2457 19.7803 18.163 19.3043 18.1289L19.1615 20.1238ZM20.1573 20.2979C20.6266 20.4348 21.0514 20.6029 21.5083 20.7837L22.2443 18.9241C21.7985 18.7476 21.2898 18.5448 20.7174 18.3779L20.1573 20.2979ZM21.4908 20.7766C22.0095 20.9933 22.5401 21.1814 23.0801 21.3402L23.6444 19.4215C23.1744 19.2833 22.7128 19.1196 22.2617 18.9311L21.4908 20.7766ZM23.0934 21.344C23.5918 21.4832 24.103 21.5731 24.6195 21.6127L24.7722 19.6185C24.3857 19.5889 24.0034 19.5216 23.6311 19.4177L23.0934 21.344ZM24.6029 21.6113C24.7198 21.6222 24.8032 21.6304 24.8811 21.6433C24.9565 21.6558 24.9999 21.6689 25.0236 21.6784C25.0441 21.6866 25.0395 21.688 25.0267 21.6761C25.0116 21.6621 25.0112 21.6541 25.0187 21.6721L26.8634 20.8991C26.3608 19.6998 25.1352 19.6523 24.7888 19.6199L24.6029 21.6113ZM25.0033 21.6328C25.0216 21.6822 25.0278 21.7341 25.0222 21.785L27.0101 22.0045C27.05 21.6435 27.0048 21.2787 26.8788 20.9384L25.0033 21.6328ZM25.0222 21.785C25.0165 21.836 24.999 21.8865 24.9692 21.9327L26.6504 23.016C26.8467 22.7114 26.9702 22.3655 27.0101 22.0045L25.0222 21.785ZM24.9251 22.0081C24.7241 22.3896 24.3937 22.6991 23.9828 22.8809L24.7923 24.7098C25.6079 24.3488 26.2799 23.7272 26.6945 22.9406L24.9251 22.0081ZM23.9828 22.8809C23.5716 23.063 23.1074 23.1047 22.6672 22.9979L22.1958 24.9415C23.0627 25.1518 23.9771 25.0706 24.7923 24.7098L23.9828 22.8809ZM22.5783 22.9806C22.4068 22.9551 22.256 22.9268 22.1217 22.8962L21.6772 24.8462C21.8672 24.8895 22.0687 24.9268 22.2847 24.9589L22.5783 22.9806ZM21.3258 24.6903C21.604 24.8851 21.8953 25.0611 22.1977 25.2171L23.1145 23.4396C22.8918 23.3247 22.6775 23.1952 22.4731 23.0521L21.3258 24.6903ZM22.1991 25.2178C23.342 25.805 24.6181 26.0976 25.9069 26.0693L25.8629 24.0698C24.9049 24.0908 23.9584 23.8732 23.1131 23.4389L22.1991 25.2178ZM25.8852 26.0695L28.005 26.0688L28.0043 24.0688L25.8846 24.0695L25.8852 26.0695ZM28.0039 26.0688C27.9375 26.0688 27.8695 26.0449 27.8137 25.9958L29.1356 24.495C28.8221 24.2188 28.4192 24.0692 28.0054 24.0688L28.0039 26.0688ZM27.8137 25.9958C27.7572 25.946 27.7168 25.8729 27.7079 25.788L29.6969 25.5788C29.6525 25.1571 29.4499 24.7718 29.1356 24.495L27.8137 25.9958ZM27.7102 25.8086C27.7547 26.1612 27.692 26.5196 27.5279 26.8402L29.3083 27.7514C29.6546 27.0748 29.7896 26.3117 29.6945 25.5582L27.7102 25.8086ZM27.5341 26.8282C27.1369 27.5791 25.9809 28.1737 24.335 27.9463L24.0614 29.9275C26.1806 30.2203 28.3656 29.5337 29.3021 27.7634L27.5341 26.8282ZM23.5932 28.1407C22.1754 29.2179 20.7193 30.2466 19.2277 31.2249L20.3246 32.8973C21.8547 31.8937 23.3485 30.8384 24.8032 29.7332L23.5932 28.1407ZM19.1763 31.261C18.6162 31.6809 17.9422 31.9382 17.233 31.9997L17.4059 33.9922C18.4836 33.8987 19.514 33.5074 20.376 32.8612L19.1763 31.261ZM17.27 31.9972C17.2326 31.999 17.1951 32 17.1577 32.0001L17.1612 34.0001C17.2305 33.9999 17.2998 33.9982 17.369 33.9947L17.27 31.9972ZM11.3951 29.7583C11.3373 29.7583 11.2785 29.7403 11.2274 29.7033L12.3999 28.083C12.1072 27.8712 11.7556 27.7586 11.397 27.7583L11.3951 29.7583ZM11.2275 29.7033C12.1759 30.3894 13.1701 31.0126 14.2035 31.5688L15.1514 29.8077C14.1956 29.2932 13.2763 28.717 12.3998 28.0829L11.2275 29.7033ZM14.2046 31.5694C15.1468 32.075 15.7952 32.3474 16.2699 32.4888C16.7849 32.6422 17.0872 32.6381 17.2933 32.6281L17.1968 30.6304C17.1622 30.6321 17.0932 30.6472 16.8408 30.572C16.5481 30.4848 16.0331 30.2808 15.1503 29.8071L14.2046 31.5694ZM17.3494 32.6238C18.1743 32.5373 18.959 32.2217 19.6099 31.7113L18.3758 30.1374C18.0238 30.4134 17.5954 30.587 17.1408 30.6347L17.3494 32.6238ZM19.5413 31.7606C21.1297 30.7188 22.6784 29.6204 24.1842 28.4676L22.9684 26.8795C21.5013 28.0027 19.9923 29.073 18.4444 30.0882L19.5413 31.7606ZM24.1848 28.4671C24.1504 28.4935 24.1121 28.5112 24.0729 28.5204L23.617 26.573C23.3821 26.628 23.1605 26.7322 22.9678 26.88L24.1848 28.4671ZM24.0729 28.5204C24.0338 28.5295 23.9935 28.5303 23.9542 28.5227L24.3327 26.5589C24.0959 26.5132 23.8519 26.518 23.617 26.573L24.0729 28.5204ZM23.9572 28.5233C24.767 28.6768 25.583 28.6505 26.2889 28.4471C26.9763 28.2491 27.68 27.843 28.0539 27.1368L26.2863 26.201C26.2573 26.2558 26.1229 26.4136 25.7353 26.5253C25.3662 26.6316 24.8704 26.6608 24.3297 26.5583L23.9572 28.5233ZM28.0545 27.1357C28.126 27.0002 28.1831 26.8576 28.2249 26.71L26.3006 26.1652C26.2971 26.1776 26.2921 26.19 26.2857 26.2021L28.0545 27.1357ZM27.2628 25.4376H25.9017V27.4376H27.2628V25.4376ZM25.88 25.4378C24.7293 25.4628 23.591 25.2104 22.5665 24.7042L21.6807 26.4973C22.9953 27.1468 24.4525 27.4693 25.9234 27.4374L25.88 25.4378ZM22.5665 24.7042C21.5421 24.1981 20.6644 23.4547 20.0095 22.5421L18.3847 23.7083C19.2331 24.8905 20.3659 25.8478 21.6807 26.4973L22.5665 24.7042ZM19.2629 22.1274C18.9182 22.1047 18.5724 22.1049 18.2278 22.1282L18.3624 24.1236C18.6184 24.1064 18.8753 24.1062 19.1313 24.123L19.2629 22.1274ZM18.2249 22.1284C18.0848 22.1382 17.9641 22.1499 17.8771 22.16L18.1095 24.1465C18.1629 24.1402 18.2527 24.1314 18.3654 24.1234L18.2249 22.1284ZM17.8812 22.1596C17.9518 22.1516 18.0261 22.1706 18.088 22.2185L16.8651 23.8011C17.2189 24.0744 17.6649 24.1967 18.1055 24.147L17.8812 22.1596ZM18.088 22.2185C18.1508 22.267 18.1975 22.3433 18.2083 22.4341L16.2222 22.6699C16.2758 23.1215 16.5105 23.527 16.8651 23.8011L18.088 22.2185ZM18.2083 22.4341C18.2191 22.5254 18.1915 22.6136 18.1384 22.6789L16.5864 21.4175C16.302 21.7674 16.1686 22.2181 16.2222 22.6699L18.2083 22.4341ZM18.1384 22.6789C18.086 22.7434 18.0149 22.7791 17.944 22.7871L17.7197 20.7997C17.2789 20.8495 16.87 21.0685 16.5864 21.4175L18.1384 22.6789ZM17.9449 22.787C18.0144 22.7791 18.1265 22.7681 18.2684 22.7581L18.1282 20.763C17.9584 20.7749 17.8177 20.7886 17.7188 20.7998L17.9449 22.787ZM18.2643 22.7584C18.6957 22.7298 19.1288 22.7393 19.5584 22.7867L19.7777 20.7988C19.2314 20.7385 18.6807 20.7264 18.1322 20.7627L18.2643 22.7584ZM19.566 22.7875L19.5794 22.7889L19.7834 20.7993L19.7701 20.7979L19.566 22.7875ZM19.5582 22.7865C19.9817 22.8391 20.3946 22.9516 20.7838 23.1202L21.5789 21.2851C21.0143 21.0404 20.4165 20.8777 19.8046 20.8017L19.5582 22.7865ZM20.7891 23.1225C21.3348 23.3552 21.9088 23.5176 22.4966 23.6057L22.7931 21.6278C22.3726 21.5647 21.9627 21.4487 21.5736 21.2828L20.7891 23.1225ZM22.4033 23.5871C22.7701 23.6784 23.1508 23.7032 23.5264 23.6602L23.2991 21.6731C23.1609 21.689 23.0209 21.6798 22.8865 21.6463L22.4033 23.5871ZM23.6555 23.6368C24.2974 23.4762 24.8694 23.1063 25.2745 22.5821L23.6919 21.3592C23.5659 21.5223 23.383 21.6433 23.1701 21.6966L23.6555 23.6368ZM24.5691 20.9744C24.1209 20.9357 23.6776 20.8552 23.2455 20.734L22.7055 22.6598C23.2582 22.8148 23.8247 22.9176 24.3973 22.967L24.5691 20.9744ZM23.2563 20.7372C22.7379 20.5855 22.2287 20.4057 21.7311 20.1987L20.963 22.0454C21.5282 22.2804 22.1063 22.4845 22.6946 22.6567L23.2563 20.7372ZM21.7169 20.1929C21.2806 20.0193 20.8235 19.8378 20.3148 19.6892L19.7541 21.609C20.1593 21.7274 20.5333 21.8744 20.9772 22.0511L21.7169 20.1929ZM20.3057 19.6866C19.9398 19.5835 19.5639 19.5185 19.1843 19.4927L19.0485 21.488C19.2907 21.5045 19.5303 21.546 19.7632 21.6116L20.3057 19.6866ZM19.1827 19.4926C18.3028 19.4341 17.4189 19.5077 16.5616 19.711L17.0231 21.657C17.6857 21.4999 18.3693 21.4429 19.05 21.4882L19.1827 19.4926ZM16.5967 19.7034C16.2135 19.7798 15.9031 19.8535 15.6731 19.9112L16.1596 21.8511C16.3662 21.7993 16.644 21.7333 16.988 21.6647L16.5967 19.7034ZM15.6686 19.9123C15.4357 19.9719 15.332 20.0036 15.2318 20.0333L15.8007 21.9507C15.8943 21.9229 15.9688 21.8999 16.1641 21.85L15.6686 19.9123ZM15.2234 20.0358L15.0893 20.0769L15.675 21.9892L15.8091 21.9482L15.2234 20.0358ZM15.106 20.072C14.9787 20.1085 14.8901 20.1318 14.8667 20.1375L15.3404 22.0806C15.4012 22.0658 15.5189 22.0342 15.6584 21.9942L15.106 20.072ZM14.8126 20.1523C14.2605 20.3202 13.7179 20.5166 13.1871 20.7408L13.9652 22.5832C14.4318 22.3862 14.9089 22.2134 15.3945 22.0658L14.8126 20.1523ZM13.1539 20.7555C12.2659 21.1692 11.4142 21.654 10.6078 22.2052L11.7364 23.8563C12.4523 23.367 13.2089 22.9362 13.9984 22.5685L13.1539 20.7555ZM10.6421 22.1828C10.0211 22.5709 9.37404 22.9182 8.70518 23.2223L9.53288 25.043C10.2816 24.7026 11.0063 24.3136 11.7021 23.8787L10.6421 22.1828ZM8.70691 23.2215C7.10384 23.9466 5.39231 24.4195 3.63613 24.6222L3.86549 26.6091C5.82643 26.3827 7.73872 25.8545 9.53115 25.0437L8.70691 23.2215ZM2.86191 26.0738C3.78998 27.8746 5.10778 29.4548 6.72221 30.706L7.94734 29.1252C6.56087 28.0507 5.43277 26.6964 4.63971 25.1576L2.86191 26.0738ZM7.61525 30.8754L11.4751 29.7476L10.9141 27.8279L7.0543 28.9557L7.61525 30.8754ZM11.4752 29.7476C11.4555 29.7533 11.4287 29.7583 11.3954 29.7583L11.3967 27.7583C11.2269 27.7582 11.0644 27.7839 10.914 27.8279L11.4752 29.7476Z" fill="black" mask="url(#path-1-inside-1_510_9418)"/>
<path d="M32.3065 26.5862H24.395C24.2111 26.5862 24.0348 26.5122 23.9047 26.3805C23.7747 26.2487 23.7016 26.07 23.7016 25.8837C23.7016 25.6974 23.7747 25.5188 23.9047 25.387C24.0348 25.2553 24.2111 25.1813 24.395 25.1813H31.6131V3.40493H8.73149V23.8606C8.73149 24.047 8.65844 24.2256 8.52841 24.3574C8.39837 24.4891 8.22201 24.5631 8.03811 24.5631C7.85421 24.5631 7.67785 24.4891 7.54781 24.3574C7.41778 24.2256 7.34473 24.047 7.34473 23.8606V2.70246C7.34473 2.51616 7.41778 2.33748 7.54781 2.20575C7.67785 2.07401 7.85421 2 8.03811 2H32.3065C32.4904 2 32.6668 2.07401 32.7968 2.20575C32.9268 2.33748 32.9999 2.51616 32.9999 2.70246V25.8837C32.9999 26.07 32.9268 26.2487 32.7968 26.3805C32.6668 26.5122 32.4904 26.5862 32.3065 26.5862Z" fill="black"/>
<path d="M23.7003 9.48276H17.7141C17.5156 9.48276 17.3253 9.40392 17.185 9.26359C17.0447 9.12327 16.9658 8.93294 16.9658 8.73448V2.74828C16.9658 2.54982 17.0447 2.35949 17.185 2.21917C17.3253 2.07884 17.5156 2 17.7141 2H23.7003C23.8988 2 24.0891 2.07884 24.2294 2.21917C24.3697 2.35949 24.4486 2.54982 24.4486 2.74828V8.73448C24.4486 8.93294 24.3697 9.12327 24.2294 9.26359C24.0891 9.40392 23.8988 9.48276 23.7003 9.48276Z" fill="black"/>
<path d="M23.7003 9.48276H17.7141C17.5156 9.48276 17.3253 9.40392 17.185 9.26359C17.0447 9.12327 16.9658 8.93294 16.9658 8.73448V2.74828C16.9658 2.54982 17.0447 2.35949 17.185 2.21917C17.3253 2.07884 17.5156 2 17.7141 2H23.7003C23.8988 2 24.0891 2.07884 24.2294 2.21917C24.3697 2.35949 24.4486 2.54982 24.4486 2.74828V8.73448C24.4486 8.93294 24.3697 9.12327 24.2294 9.26359C24.0891 9.40392 23.8988 9.48276 23.7003 9.48276Z" fill="#FF5B00"/>
</svg>
