<svg viewBox="0 0 40 40" width="100%" height="100%" fill="none" xmlns="http://www.w3.org/2000/svg">
<path d="M30 2.50041C31.1021 2.50154 32.1903 2.74551 33.1874 3.21499C34.1844 3.68447 35.0658 4.36791 35.7687 5.21668C36.4716 6.06546 36.9788 7.05871 37.2543 8.12578C37.5297 9.19286 37.5667 10.3075 37.3624 11.3905C37.1581 12.4734 36.7177 13.4981 36.0725 14.3915C35.4273 15.2849 34.5931 16.0252 33.6293 16.5596C32.6655 17.094 31.5957 17.4094 30.4962 17.4835C29.3966 17.5575 28.2942 17.3883 27.2675 16.9879L18.75 28.3354V35.0004H22.5C22.8315 35.0004 23.1495 35.1321 23.3839 35.3665C23.6183 35.6009 23.75 35.9189 23.75 36.2504C23.75 36.5819 23.6183 36.8999 23.3839 37.1343C23.1495 37.3687 22.8315 37.5004 22.5 37.5004H12.5C12.1685 37.5004 11.8505 37.3687 11.6161 37.1343C11.3817 36.8999 11.25 36.5819 11.25 36.2504C11.25 35.9189 11.3817 35.6009 11.6161 35.3665C11.8505 35.1321 12.1685 35.0004 12.5 35.0004H16.25V28.3354L3 10.6854C2.67544 10.2527 2.5 9.72634 2.5 9.18541V8.76791C2.5 8.43639 2.6317 8.11845 2.86612 7.88403C3.10054 7.64961 3.41848 7.51791 3.75 7.51791H6.555L3.995 4.24291C3.79078 3.98167 3.69871 3.65001 3.73903 3.32088C3.77935 2.99176 3.94876 2.69213 4.21 2.48791C4.47124 2.28369 4.8029 2.19162 5.13203 2.23194C5.46115 2.27226 5.76078 2.44167 5.965 2.70291L9.725 7.51791H22.9175C23.4325 6.05073 24.3907 4.77983 25.6595 3.88095C26.9283 2.98208 28.4451 2.49966 30 2.50041ZM25.66 7.51791H31.25C31.5815 7.51791 31.8995 7.64961 32.1339 7.88403C32.3683 8.11845 32.5 8.43639 32.5 8.76791V9.18291C32.5 9.72384 32.3246 10.2502 32 10.6829L28.8575 14.8704C29.7604 15.082 30.7044 15.0382 31.5839 14.7441C32.4635 14.4499 33.2438 13.917 33.8378 13.2048C34.4318 12.4926 34.8161 11.6292 34.9476 10.7112C35.079 9.79314 34.9526 8.85663 34.5824 8.00633C34.2122 7.15602 33.6128 6.42543 32.8513 5.89623C32.0897 5.36702 31.1959 5.06005 30.2699 5.00963C29.3439 4.95921 28.4221 5.16734 27.6075 5.61073C26.793 6.05413 26.1178 6.71532 25.6575 7.52041L25.66 7.51791ZM11.68 10.0179L16.7375 16.4929C16.9302 16.755 17.0131 17.0819 16.9686 17.4041C16.9241 17.7263 16.7558 18.0185 16.4994 18.2187C16.243 18.4188 15.9186 18.5111 15.5953 18.4759C15.2719 18.4408 14.9749 18.281 14.7675 18.0304L8.5075 10.0179H5.625L17.5 25.8354L29.375 10.0179H11.68Z" fill="black"/>
<path d="M5.19238 3.5L16.0571 17.5564" stroke="#FF5B00" stroke-width="2.7" stroke-linecap="round"/>
</svg>
