<svg width="100" preserveAspectRatio="xMidYMid meet" viewBox="0 0 91 32" fill="none" xmlns="http://www.w3.org/2000/svg">
<path d="M4.84986 10.3418L0 18.7483H9.69971L15.8429 30.0646H25.5426L13.9029 10.3418H4.84986Z" fill="currentColor"/>
<path d="M18.4295 1.93542H40.4155L35.8889 10.3418H13.9029L18.4295 1.93542Z" fill="currentColor"/>
<path d="M46.0368 15.6165V0H51.6364L54.7374 13.6087H55.139V0H58.0392V15.6165H52.4396L49.3386 2.00784H48.937V15.6165H46.0368Z" fill="currentColor"/>
<path d="M63.2132 15.6165V0H73.2524V2.67712H66.1581V6.40278H72.6278V9.0799H66.1581V12.9394H73.3863V15.6165H63.2132Z" fill="currentColor"/>
<path d="M76.8155 15.6165L81.3889 7.74134L76.8601 0H80.2065L83.3075 5.64426H83.7091L86.8101 0H90.1565L85.6277 7.74134L90.2011 15.6165H86.8547L83.7091 9.83842H83.3075L80.1619 15.6165H76.8155Z" fill="currentColor"/>
<path d="M45.5886 31.7827V20.9191H49.3909L51.2688 30.386H51.5482L53.426 20.9191H57.2283V31.7827H55.2418V22.4244H54.9625L53.1001 31.7827H49.7169L47.8545 22.4244H47.5751V31.7827H45.5886Z" fill="currentColor"/>
<path d="M65.0476 32C63.6819 32 62.5955 31.6275 61.7885 30.8826C60.9815 30.1273 60.578 29.0513 60.578 27.6545V25.0472C60.578 23.6505 60.9815 22.5796 61.7885 21.8347C62.5955 21.0794 63.6819 20.7018 65.0476 20.7018C66.4133 20.7018 67.4997 21.0794 68.3067 21.8347C69.1137 22.5796 69.5172 23.6505 69.5172 25.0472V27.6545C69.5172 29.0513 69.1137 30.1273 68.3067 30.8826C67.4997 31.6275 66.4133 32 65.0476 32ZM65.0476 30.1687C65.8132 30.1687 66.4082 29.9463 66.8324 29.5014C67.2566 29.0565 67.4687 28.4615 67.4687 27.7166V24.9852C67.4687 24.2402 67.2566 23.6453 66.8324 23.2004C66.4082 22.7555 65.8132 22.5331 65.0476 22.5331C64.2923 22.5331 63.6974 22.7555 63.2629 23.2004C62.8387 23.6453 62.6266 24.2402 62.6266 24.9852V27.7166C62.6266 28.4615 62.8387 29.0565 63.2629 29.5014C63.6974 29.9463 64.2923 30.1687 65.0476 30.1687Z" fill="currentColor"/>
<path d="M74.6714 31.7827L71.9089 20.9191H74.0196L76.3165 30.4636H76.5338L78.8307 20.9191H80.9413L78.1788 31.7827H74.6714Z" fill="currentColor"/>
<path d="M83.7995 31.7827V20.9191H90.7832V22.7814H85.848V25.3732H90.3487V27.2355H85.848V29.9204H90.8764V31.7827H83.7995Z" fill="currentColor"/>
</svg>
