<?xml version="1.0" encoding="UTF-8"?>
<svg id="Layer_2" data-name="Layer 2" xmlns="http://www.w3.org/2000/svg" viewBox="0 0 593.65 299.62">
  <defs>
    <style>
      .cls-1 {
        fill: #fff;
      }

      .cls-2 {
        fill: #ff5f00;
      }
    </style>
  </defs>
  <g id="Layer_1-2" data-name="Layer 1">
    <g>
      <path class="cls-2" d="M91.89,54.16c-.08-.18-.18-.31-.3-.4L122.88.64c.21-.35.57-.56.97-.56h159.81c.38,0,.69.31.69.7,0,.11-.03.22-.08.32l-26.47,51.16c-.61,1.18-1.83,1.92-3.16,1.92l-162.75-.03Z"/>
      <path class="cls-1" d="M402.67.5v87.19c0,.23-.18.41-.41.41h-17.13c-.13,0-.26-.07-.33-.19l-36.56-53.6c-.12-.19-.38-.24-.57-.12-.12.08-.19.21-.19.35v53.15c0,.23-.18.41-.41.41h-17.28c-.23,0-.41-.18-.41-.41V.51c0-.23.18-.41.41-.41h15.88c.13,0,.26.07.33.19l37.96,55.65c.12.19.38.24.57.12.12-.08.19-.21.19-.35V.5c0-.23.18-.41.41-.41h17.13c.23,0,.41.18.41.41Z"/>
      <path class="cls-1" d="M479,36.26v13.24c0,.42-.34.77-.77.77h-33.02c-.42,0-.77.34-.77.77h0v19.78c0,.42.34.77.77.77h38.28c.42,0,.77.34.77.77h0v14.99c0,.42-.34.77-.77.77h-57.95c-.42,0-.77-.34-.77-.77h0V.83c0-.42.34-.77.77-.77h57.68c.42,0,.77.34.77.77v13.89c0,.42-.34.77-.77.77h-37.99c-.42,0-.77.34-.77.77h0v18.47c0,.42.34.77.77.77h33.01c.42,0,.77.34.77.77h0Z"/>
      <path class="cls-1" d="M538.49,30.18c.06,0,.11,0,.13-.01.12-.02.22-.06.25-.11l19.07-29.29c.27-.42.75-.68,1.26-.68,6.5-.02,12.73.01,18.7.09.41,0,.61.19.58.57-.03.3-.14.6-.33.9-11.48,17.7-20.58,31.46-27.29,41.28-.26.38-.27.88-.01,1.27l28.08,42.53c.28.43.15,1-.28,1.28-.15.09-.32.15-.49.15h-17.38c-1.07,0-2.08-.54-2.66-1.44l-19.33-29.98c-.06-.09-.14-.15-.2-.16-.04,0-.09-.01-.13-.01-.05,0-.1,0-.15.01-.06.01-.13.07-.19.16l-19.45,29.91c-.59.89-1.59,1.43-2.66,1.43l-17.38-.07c-.51,0-.92-.43-.92-.94,0-.18.05-.35.15-.49l28.24-42.42c.26-.39.25-.89-.01-1.27-6.67-9.85-15.72-23.65-27.13-41.39-.19-.3-.3-.6-.33-.9-.03-.38.17-.57.58-.57,5.97-.05,12.2-.06,18.7-.03.52,0,.99.26,1.26.69l18.96,29.35s.12.09.24.11c.04,0,.08.01.13.01Z"/>
      <path class="cls-1" d="M91.58,53.76c.12.09.23.22.3.4l79.43,127.31c.2.33.09.76-.23.96-.11.06-.23.1-.35.1h-61.79c-.59,0-1.15-.31-1.47-.82l-46.26-73.89c-.26-.41-.71-.66-1.19-.66H2.75c-.33,0-.59-.28-.59-.6,0-.1.03-.21.08-.3l31.7-51.68c.21-.34.57-.54.97-.54l56.67-.26Z"/>
      <path class="cls-1" d="M437.9,118.21c19.28-.21,31.34,14.03,31.54,32.54.21,18.52-11.53,33.03-30.8,33.25-19.28.21-31.34-14.03-31.54-32.54-.21-18.52,11.53-33.03,30.8-33.25ZM437.88,128.99c-10.51.18-18.86,10.3-18.65,22.6h0c.21,12.3,8.91,22.12,19.43,21.93,10.51-.18,18.86-10.3,18.65-22.6h0c-.21-12.3-8.91-22.12-19.43-21.93Z"/>
      <path class="cls-1" d="M382.06,137.17c.01-.11-.06-.21-.17-.23s-.21.06-.23.17l-13.36,44.43c-.18.63-.76,1.06-1.42,1.06h-10.67c-.66,0-1.24-.43-1.43-1.06l-13.13-43.19c-.05-.13-.2-.21-.34-.16-.1.03-.17.12-.17.23v43.51c0,.37-.3.66-.66.66h-10.33c-.3,0-.54-.25-.54-.56v-61.67c0-.48.39-.87.86-.87h15.39c.57,0,1.08.38,1.24.93l14.29,46.95c.04.17.22.27.39.22.11-.03.19-.11.23-.22l14.07-46.84c.17-.59.71-.99,1.32-.99h15.94c.43,0,.78.35.78.78v61.49c0,.43-.35.78-.78.78h-10.53c-.42,0-.77-.34-.77-.77h0v-44.65Z"/>
      <path class="cls-1" d="M554.61,146.49h22.96c.42,0,.75.34.75.75h0v9c0,.42-.34.75-.75.75h-22.93c-.42,0-.75.34-.75.75v14.01c0,.42.34.75.75.75h25.45c.42,0,.75.34.75.75h0v8.57c0,.42-.34.75-.75.75h-37.46c-.42,0-.75-.34-.75-.75v-61.51c0-.42.34-.75.75-.75h36.98c.42,0,.75.34.75.75v8.9c0,.42-.34.75-.75.75h-25c-.42,0-.75.34-.75.75h0v15c0,.42.34.75.75.75h0Z"/>
      <path class="cls-1" d="M503.02,170.73c.12,0,.19-.02.21-.07,4.88-16.52,10.06-33.45,15.53-50.82.06-.17.21-.28.37-.28h13c.1,0,.17.08.17.19,0,.02,0,.04,0,.05l-21.3,62.07c-.14.39-.48.66-.89.7-.26.03-2.63.04-7.1.04s-6.83-.01-7.08-.04c-.4-.04-.75-.32-.89-.7l-21.28-62.08c-.03-.1.02-.2.11-.23.02,0,.03,0,.05,0h13c.17,0,.31.11.37.28,5.46,17.37,10.63,34.31,15.5,50.83.02.04.09.07.23.07Z"/>
      <rect class="cls-1" y="218.24" width="593.65" height="3.52" rx="1.31" ry="1.31"/>
      <rect class="cls-1" x="348.3" y="245.62" width="11.65" height="10.94" rx="2.1" ry="2.1" transform="translate(-.87 1.24) rotate(-.2)"/>
      <path class="cls-1" d="M3.09,250.07c11.04-.25,18.65-.23,22.81.07,9.37.66,14.39,5.48,15.08,14.45.9,11.59-7.39,18.06-18.35,17.57-2.96-.13-5.79-.19-8.51-.17-.48,0-.86.39-.86.86h0v15.31c0,.24-.2.44-.44.44H2.66c-.19,0-.34-.15-.34-.34h0v-47.4c0-.42.34-.76.77-.77ZM13.19,259.51l.16,13.82c0,.26.23.47.49.46h0l8.2-.09c4.38-.05,7.9-2.91,7.85-6.39,0,0,0,0,0,0l-.03-2.2c-.05-3.47-3.63-6.24-8.01-6.18l-8.2.09c-.26,0-.47.23-.46.49,0,0,0,0,0,0Z"/>
      <path class="cls-1" d="M149.76,290.5c.14-.05.3.02.35.16.01.03.02.06.02.1v7.43c-.02.21-.17.38-.37.42-5.67,1.1-13.94,1.38-16.96-4.5-.75-1.46-1.11-3.98-1.09-7.56.03-4.85.04-10.49.03-16.93,0-.49-.39-.89-.87-.9h-5.04c-.43-.02-.78-.37-.78-.81v-6.21c.02-.44.37-.79.81-.79h5.15c.41.01.74-.32.74-.73h0s.03-7.97.03-7.97c0-.35.28-.64.64-.64h0l9.18.03c.34,0,.62.28.62.62h0l-.03,7.92c0,.46.37.83.82.83h0l6.73.03c.35,0,.62.29.62.64v6.61c-.02.28-.24.5-.52.5h-6.9c-.42-.01-.75.32-.75.74h0l-.05,18.68c0,.54.22,1.05.61,1.42,1.77,1.67,4.12,1.98,7.03.93Z"/>
      <path class="cls-1" d="M591.71,290.56c.14-.05.3.02.35.16.01.03.02.06.02.1v7.45c0,.21-.15.39-.36.44-5.68,1.11-13.98,1.42-17.04-4.48-.75-1.46-1.12-3.99-1.11-7.59.02-4.86.01-10.53-.01-17,0-.5-.4-.9-.89-.9h-5.06c-.44,0-.79-.36-.79-.79v-6.24c0-.45.36-.81.79-.81h5.18c.41,0,.74-.33.74-.74v-8.01c0-.35.28-.64.64-.64h9.22c.34,0,.62.28.62.62h0v7.96c0,.46.37.83.82.83h6.75c.35,0,.64.28.64.64v6.63c0,.29-.23.52-.5.52h-6.92c-.42,0-.75.34-.75.75h0v18.76c0,.54.22,1.05.61,1.42,1.79,1.68,4.15,1.98,7.07.91Z"/>
      <path class="cls-1" d="M72.94,294.02c0-.29-.25-.51-.53-.5-.16,0-.31.09-.41.22-1.36,2.08-2.86,3.76-5.11,4.54-8.73,3.02-20.76.4-20.55-11.02.11-6.1,5.47-10.17,11.25-10.79,6.91-.75,11.52-1.09,13.82-1.03.39.01.73-.3.74-.7,0,0,0,0,0,0,.14-3.64-1.36-5.76-4.5-6.36-5.28-1-8.54.48-9.78,4.42-.08.25-.31.41-.57.41h-9.32c-.25,0-.45-.19-.46-.44,0-.03,0-.06,0-.09.64-4.05,2.25-7.04,4.81-8.98,5.49-4.14,14.66-4.63,21.34-2.44,7.18,2.37,8.57,7.43,8.55,14.92-.02,11.66-.03,18.73-.03,21.2,0,.72-.58,1.3-1.3,1.3h-6.77c-.67,0-1.2-.54-1.2-1.2h0v-3.47ZM71.45,282.08c-4.42.01-15.17.04-14.41,6.43.05.44.26.86.6,1.17,1.22,1.12,2.5,1.74,3.85,1.85,6.89.56,10.49-2.29,10.82-8.55.02-.47-.34-.88-.81-.9-.02,0-.04,0-.05,0Z"/>
      <path class="cls-1" d="M104.14,265.4c0,.2.16.37.36.38.13,0,.26-.07.33-.18,2.82-4.68,7.35-6.38,13.58-5.11.21.04.37.23.37.45v8.59c0,.22-.18.4-.4.4-.02,0-.05,0-.07,0-7.04-1.27-11.43.52-13.19,5.36-.38,1.03-.6,4.11-.68,9.23,0,.6,0,5.19.04,13.77,0,.23-.18.41-.4.41h-9.63c-.25,0-.45-.2-.45-.45v-36.21c0-.64.53-1.17,1.18-1.17h8.09c.48,0,.86.39.86.86v3.67Z"/>
      <path class="cls-1" d="M169.4,265.35c.05.19.24.31.43.26.07-.02.14-.06.19-.12,1.91-2.46,3.91-4.33,6.91-4.91,9.85-1.91,18.21,2.03,18.3,13.02,0,.74.03,8.9.05,24.47,0,.33-.27.6-.61.6h-9.16c-.32,0-.58-.27-.58-.58-.04-7.74-.05-13.87-.01-18.39.04-4.29-.37-7.11-1.24-8.47-2.79-4.33-9.97-3.36-12.72,1.05-.78,1.24-1.18,3.29-1.2,6.17-.07,7.71-.07,14.29.01,19.74,0,.29-.22.52-.5.53,0,0,0,0-.01,0h-9.69c-.29,0-.53-.24-.53-.53v-35.99c0-.74.6-1.34,1.34-1.34h8.28c.58,0,1.06.47,1.07,1.05,0,.13-.02.27-.07.39-.36.94-.44,1.96-.23,3.06Z"/>
      <path class="cls-1" d="M242.66,281.71c-.02.34-.31.61-.65.61h-25.4c-.43,0-.78.35-.78.79,0,.02,0,.05,0,.07.34,4.03,2.06,6.58,5.15,7.64,4.48,1.54,8.2.4,11.16-3.4.3-.38.75-.6,1.23-.6h8.18c.35,0,.64.28.64.64,0,.05,0,.1-.02.15-2.79,11.93-18.4,14.67-27.82,9.55-6.83-3.72-9.82-10.07-8.98-19.07,1.2-12.68,8.39-18.65,21.57-17.9,11.69.68,16.34,11.2,15.7,21.52ZM216.23,275.51l15.78-.03c.09,0,.16-.07.16-.16v-.11c0-3.96-3.53-7.16-7.88-7.16h-.34c-4.35,0-7.88,3.22-7.88,7.18,0,0,0,0,0,.01v.11c0,.09.07.16.16.16h0Z"/>
      <path class="cls-1" d="M263.48,265.37c0,.2.17.37.38.37.13,0,.25-.07.31-.18,2.79-4.67,7.29-6.39,13.49-5.15.21.04.37.23.37.44l.05,8.57c0,.22-.18.4-.4.4-.02,0-.05,0-.07,0-7.01-1.24-11.38.56-13.11,5.4-.37,1.03-.58,4.1-.62,9.19,0,.6.04,5.17.12,13.72,0,.23-.18.41-.4.41h0l-9.59.05c-.25,0-.45-.2-.45-.45l-.19-36.05c0-.64.52-1.16,1.17-1.17l8.05-.05c.48,0,.86.39.86.86h0l.03,3.65Z"/>
      <path class="cls-1" d="M316.41,272.72h-8.43c-.65,0-1.2-.5-1.27-1.17-.11-1.18-.56-2-1.36-2.45-3.6-2.01-6.93-1.88-9.98.4-1.09.82-1.35,2.33-.58,3.36.05.06.09.12.15.18.86.94,2.04,1.53,3.55,1.79,4.48.75,8.41,1.56,11.81,2.42,6.15,1.55,8.77,5.52,7.85,11.89-1.66,11.49-18.92,11.55-26.69,8.73-4.45-1.61-7.07-4.97-7.88-10.1-.1-.62.32-1.21.95-1.31.06-.01.12-.02.19-.02h7.4c.5,0,.96.27,1.22.7,2.55,4.52,6.85,5.66,12.9,3.42,1.24-.46,1.98-1.73,1.77-3.03-.25-1.56-1.24-2.48-2.98-2.74-2.98-.47-6.73-1.21-11.23-2.24-6.47-1.48-11.72-6.9-9.15-13.97,2.07-5.69,8.08-8.26,13.94-8.39,9.03-.21,16.7,1.02,18.89,11.21.13.59-.24,1.17-.82,1.3-.08.02-.16.03-.24.03Z"/>
      <path class="cls-1" d="M381.92,265.39c.03.19.2.32.39.29.09-.01.18-.07.23-.14,1.89-2.44,3.88-4.29,6.86-4.86,9.78-1.88,18.06,2.04,18.14,12.94,0,.74.02,8.84.03,24.28,0,.33-.27.6-.61.6h-9.1c-.32-.02-.58-.28-.58-.6-.04-7.68-.03-13.77.01-18.26.05-4.25-.35-7.06-1.22-8.41-2.77-4.29-9.89-3.35-12.62,1.02-.78,1.24-1.18,3.28-1.22,6.13-.08,7.64-.08,14.17-.01,19.58,0,.29-.22.52-.5.53,0,0,0,0-.01,0h-9.61c-.29-.02-.52-.26-.52-.54l.05-35.71c0-.73.59-1.32,1.32-1.32h8.21c.58.01,1.06.48,1.06,1.06,0,.13-.02.26-.07.38-.36.94-.44,1.95-.24,3.03Z"/>
      <path class="cls-1" d="M447.05,265.33c.05.19.24.31.43.26.07-.02.14-.06.19-.12,1.91-2.46,3.91-4.33,6.91-4.91,9.85-1.91,18.21,2.03,18.3,13.02,0,.74.03,8.9.07,24.48,0,.33-.27.6-.61.6h-9.16c-.33,0-.6-.26-.6-.58h0c-.04-7.74-.05-13.88-.01-18.4.04-4.29-.37-7.11-1.24-8.47-2.79-4.33-9.97-3.36-12.72,1.05-.78,1.24-1.18,3.31-1.2,6.18-.07,7.71-.07,14.29.01,19.74,0,.29-.22.52-.5.53,0,0,0,0-.01,0h-9.69c-.29,0-.53-.24-.53-.53v-36c0-.74.6-1.34,1.34-1.34h8.28c.59,0,1.06.47,1.07,1.05,0,.13-.02.27-.07.39-.36.94-.44,1.96-.23,3.06Z"/>
      <path class="cls-1" d="M520.45,281.74c-.02.34-.3.6-.64.61h-25.36c-.43,0-.78.35-.79.78,0,.03,0,.06,0,.08.34,4.03,2.06,6.57,5.14,7.63,4.48,1.54,8.19.4,11.15-3.4.3-.38.75-.6,1.23-.6h8.17c.35,0,.63.3.63.66,0,.05,0,.09-.02.14-2.78,11.92-18.36,14.66-27.77,9.53-6.82-3.71-9.81-10.05-8.96-19.03,1.2-12.67,8.38-18.62,21.53-17.87,11.68.68,16.31,11.17,15.68,21.48ZM494.28,275.47l15.68-.03c.08,0,.15-.07.15-.15h0v-.09c0-3.92-3.51-7.08-7.83-7.08h-.32c-4.32,0-7.83,3.18-7.83,7.1,0,0,0,0,0,.01v.09c0,.08.07.15.15.15h0Z"/>
      <rect class="cls-1" x="348.58" y="260.86" width="10.7" height="37.76" rx=".44" ry=".44"/>
      <path class="cls-1" d="M544.78,271.85c.26,0,.67-.49,1.24-1.46,1.86-3.19,3.73-6.22,5.61-9.11.12-.17.31-.28.53-.28h11.11c.08,0,.15.06.15.14,0,.04-.01.07-.03.1l-12.15,17.29c-.17.24-.17.55-.01.78l13.15,19.26c.03.05.01.12-.04.14-.02,0-.03.01-.05.01h-11.27c-.25,0-.48-.12-.62-.33-2.03-2.96-4.48-6.8-7.34-11.53-.11-.19-.24-.28-.41-.28-.18,0-.32.09-.42.26-2.95,4.68-5.47,8.48-7.56,11.4-.14.2-.38.32-.62.32l-11.27-.21c-.06,0-.11-.04-.12-.1,0-.03,0-.06.02-.08l13.52-19c.16-.23.16-.54,0-.78l-11.82-17.53c-.04-.07-.02-.16.04-.2.02-.01.05-.02.08-.02l11.11.21c.22,0,.41.11.53.28,1.83,2.92,3.64,5.99,5.44,9.22.55.99.95,1.48,1.2,1.48Z"/>
    </g>
  </g>
</svg>