<svg width="100%" height="100%" viewBox="0 0 1254 916" fill="none" xmlns="http://www.w3.org/2000/svg">
<path opacity="0.4" d="M1 160.021L293.146 285.806C314.773 295.118 339.341 294.784 360.708 284.889L957.16 8.66838C980.19 -1.99699 1006.84 -1.51504 1029.47 9.97611L1367 181.375M1 169.449L293.146 295.234C314.773 304.546 339.341 304.212 360.708 294.317L957.16 18.0964C980.19 7.43101 1006.84 7.91296 1029.47 19.4041L1367 190.803M1 178.877L293.146 304.662C314.773 313.974 339.341 313.64 360.708 303.745L957.16 27.5244C980.19 16.859 1006.84 17.341 1029.47 28.8321L1367 200.231M1 188.305L293.146 314.09C314.773 323.402 339.341 323.068 360.708 313.173L957.16 36.9524C980.19 26.287 1006.84 26.769 1029.47 38.2601L1367 209.659M1 197.733L293.146 323.518C314.773 332.83 339.341 332.496 360.708 322.601L957.16 46.3804C980.19 35.715 1006.84 36.1969 1029.47 47.6881L1367 219.087M1 207.161L293.146 332.946C314.773 342.258 339.341 341.924 360.708 332.029L957.16 55.8084C980.19 45.143 1006.84 45.6249 1029.47 57.1161L1367 228.515M1 216.589L293.146 342.374C314.773 351.686 339.341 351.352 360.708 341.457L957.16 65.2364C980.19 54.571 1006.84 55.0529 1029.47 66.5441L1367 237.943M1 226.017L293.146 351.802C314.773 361.114 339.341 360.78 360.708 350.885L957.16 74.6644C980.19 63.999 1006.84 64.4809 1029.47 75.9721L1367 247.371M1 235.445L293.146 361.23C314.773 370.542 339.341 370.208 360.708 360.313L957.16 84.0924C980.19 73.427 1006.84 73.9089 1029.47 85.4001L1367 256.799M1 244.873L293.146 370.658C314.773 379.97 339.341 379.636 360.708 369.741L957.16 93.5204C980.19 82.855 1006.84 83.3369 1029.47 94.8281L1367 266.227M1 254.301L293.146 380.086C314.773 389.398 339.341 389.064 360.708 379.169L957.16 102.948C980.19 92.283 1006.84 92.7649 1029.47 104.256L1367 275.655M1 263.729L293.146 389.514C314.773 398.826 339.341 398.492 360.708 388.597L957.16 112.376C980.19 101.711 1006.84 102.193 1029.47 113.684L1367 285.083M1 273.157L293.146 398.942C314.773 408.254 339.341 407.92 360.708 398.025L957.16 121.804C980.19 111.139 1006.84 111.621 1029.47 123.112L1367 294.511M1 282.585L293.146 408.37C314.773 417.682 339.341 417.348 360.708 407.453L957.16 131.232C980.19 120.567 1006.84 121.049 1029.47 132.54L1367 303.939M1 292.013L293.146 417.798C314.773 427.11 339.341 426.776 360.708 416.881L957.16 140.66C980.19 129.995 1006.84 130.477 1029.47 141.968L1367 313.367M1 301.441L293.146 427.226C314.773 436.538 339.341 436.204 360.708 426.309L957.16 150.088C980.19 139.423 1006.84 139.905 1029.47 151.396L1367 322.795M1 310.869L293.146 436.654C314.773 445.966 339.341 445.632 360.708 435.737L957.16 159.516C980.19 148.851 1006.84 149.333 1029.47 160.824L1367 332.223M1 320.297L293.146 446.082C314.773 455.394 339.341 455.06 360.708 445.165L957.16 168.944C980.19 158.279 1006.84 158.761 1029.47 170.252L1367 341.651M1 329.725L293.146 455.51C314.773 464.822 339.341 464.488 360.708 454.593L957.16 178.372C980.19 167.707 1006.84 168.189 1029.47 179.68L1367 351.079M1 339.153L293.146 464.938C314.773 474.25 339.341 473.916 360.708 464.021L957.16 187.8C980.19 177.135 1006.84 177.617 1029.47 189.108L1367 360.507M1 348.581L293.146 474.366C314.773 483.678 339.341 483.344 360.708 473.449L957.16 197.228C980.19 186.563 1006.84 187.045 1029.47 198.536L1367 369.935M1 358.009L293.146 483.794C314.773 493.106 339.341 492.772 360.708 482.877L957.16 206.656C980.19 195.991 1006.84 196.473 1029.47 207.964L1367 379.363M1 367.437L293.146 493.222C314.773 502.534 339.341 502.2 360.708 492.305L957.16 216.084C980.19 205.419 1006.84 205.901 1029.47 217.392L1367 388.791M1 376.865L293.146 502.65C314.773 511.962 339.341 511.628 360.708 501.733L957.16 225.512C980.19 214.847 1006.84 215.329 1029.47 226.82L1367 398.219M1 386.293L293.146 512.078C314.773 521.39 339.341 521.056 360.708 511.161L957.16 234.94C980.19 224.275 1006.84 224.757 1029.47 236.248L1367 407.647M1 395.721L293.146 521.506C314.773 530.818 339.341 530.484 360.708 520.589L957.16 244.368C980.19 233.703 1006.84 234.185 1029.47 245.676L1367 417.075M1 405.149L293.146 530.934C314.773 540.246 339.341 539.912 360.708 530.017L957.16 253.796C980.19 243.131 1006.84 243.613 1029.47 255.104L1367 426.503M1 414.577L293.146 540.362C314.773 549.674 339.341 549.34 360.708 539.445L957.16 263.224C980.19 252.559 1006.84 253.041 1029.47 264.532L1367 435.931M1 424.005L293.146 549.79C314.773 559.102 339.341 558.768 360.708 548.873L957.16 272.652C980.19 261.987 1006.84 262.469 1029.47 273.96L1367 445.359M1 433.433L293.146 559.218C314.773 568.53 339.341 568.196 360.708 558.301L957.16 282.08C980.19 271.415 1006.84 271.897 1029.47 283.388L1367 454.787M1 442.861L293.146 568.646C314.773 577.958 339.341 577.624 360.708 567.729L957.16 291.508C980.19 280.843 1006.84 281.325 1029.47 292.816L1367 464.215M1 452.289L293.146 578.074C314.773 587.386 339.341 587.052 360.708 577.157L957.16 300.936C980.19 290.271 1006.84 290.753 1029.47 302.244L1367 473.643M1 461.717L293.146 587.502C314.773 596.814 339.341 596.48 360.708 586.585L957.16 310.364C980.19 299.699 1006.84 300.181 1029.47 311.672L1367 483.071M1 471.145L293.146 596.93C314.773 606.242 339.341 605.908 360.708 596.013L957.16 319.792C980.19 309.127 1006.84 309.609 1029.47 321.1L1367 492.499M1 480.573L293.146 606.358C314.773 615.67 339.341 615.336 360.708 605.441L957.16 329.22C980.19 318.555 1006.84 319.037 1029.47 330.528L1367 501.927M1 490.001L293.146 615.786C314.773 625.098 339.341 624.764 360.708 614.869L957.16 338.648C980.19 327.983 1006.84 328.465 1029.47 339.956L1367 511.355M1 499.429L293.146 625.214C314.773 634.526 339.341 634.192 360.708 624.297L957.16 348.076C980.19 337.411 1006.84 337.893 1029.47 349.384L1367 520.783M1 508.857L293.146 634.642C314.773 643.954 339.341 643.62 360.708 633.725L957.16 357.504C980.19 346.839 1006.84 347.321 1029.47 358.812L1367 530.211M1 518.285L293.146 644.07C314.773 653.382 339.341 653.048 360.708 643.153L957.16 366.932C980.19 356.267 1006.84 356.749 1029.47 368.24L1367 539.639M1 527.713L293.146 653.498C314.773 662.81 339.341 662.476 360.708 652.581L957.16 376.36C980.19 365.695 1006.84 366.177 1029.47 377.668L1367 549.067M1 537.141L293.146 662.926C314.773 672.238 339.341 671.904 360.708 662.009L957.16 385.788C980.19 375.123 1006.84 375.605 1029.47 387.096L1367 558.495M1 546.569L293.146 672.354C314.773 681.666 339.341 681.332 360.708 671.437L957.16 395.216C980.19 384.551 1006.84 385.033 1029.47 396.524L1367 567.923M1 555.997L293.146 681.782C314.773 691.094 339.341 690.76 360.708 680.865L957.16 404.644C980.19 393.979 1006.84 394.461 1029.47 405.952L1367 577.351M1 565.425L293.146 691.21C314.773 700.522 339.341 700.188 360.708 690.293L957.16 414.072C980.19 403.407 1006.84 403.889 1029.47 415.38L1367 586.779M1 574.853L293.146 700.638C314.773 709.95 339.341 709.616 360.708 699.721L957.16 423.5C980.19 412.835 1006.84 413.317 1029.47 424.808L1367 596.207M1 584.281L293.146 710.066C314.773 719.378 339.341 719.044 360.708 709.149L957.16 432.929C980.19 422.263 1006.84 422.745 1029.47 434.236L1367 605.635M1 593.709L293.146 719.494C314.773 728.806 339.341 728.472 360.708 718.578L957.16 442.357C980.19 431.691 1006.84 432.173 1029.47 443.664L1367 615.063M1 603.137L293.146 728.922C314.773 738.234 339.341 737.9 360.708 728.006L957.16 451.785C980.19 441.119 1006.84 441.601 1029.47 453.092L1367 624.491M1 612.565L293.146 738.35C314.773 747.662 339.341 747.328 360.708 737.434L957.16 461.213C980.19 450.547 1006.84 451.029 1029.47 462.52L1367 633.919M1 621.993L293.146 747.778C314.773 757.09 339.341 756.756 360.708 746.862L957.16 470.641C980.19 459.975 1006.84 460.457 1029.47 471.948L1367 643.347M1 631.421L293.146 757.206C314.773 766.518 339.341 766.184 360.708 756.29L957.16 480.069C980.19 469.403 1006.84 469.885 1029.47 481.376L1367 652.775M1 640.849L293.146 766.634C314.773 775.946 339.341 775.612 360.708 765.718L957.16 489.497C980.19 478.831 1006.84 479.313 1029.47 490.804L1367 662.203M1 650.277L293.146 776.062C314.773 785.374 339.341 785.04 360.708 775.146L957.16 498.925C980.19 488.259 1006.84 488.741 1029.47 500.232L1367 671.631M1 659.705L293.146 785.49C314.773 794.802 339.341 794.469 360.708 784.574L957.16 508.353C980.19 497.687 1006.84 498.169 1029.47 509.66L1367 681.059M1 669.133L293.146 794.918C314.773 804.23 339.341 803.897 360.708 794.002L957.16 517.781C980.19 507.115 1006.84 507.597 1029.47 519.088L1367 690.487M1 678.561L293.146 804.346C314.773 813.658 339.341 813.325 360.708 803.43L957.16 527.209C980.19 516.543 1006.84 517.025 1029.47 528.516L1367 699.915M1 687.989L293.146 813.774C314.773 823.086 339.341 822.753 360.708 812.858L957.16 536.637C980.19 525.971 1006.84 526.453 1029.47 537.944L1367 709.343M1 697.417L293.146 823.202C314.773 832.514 339.341 832.181 360.708 822.286L957.16 546.065C980.19 535.399 1006.84 535.881 1029.47 547.372L1367 718.771M1 706.845L293.146 832.63C314.773 841.942 339.341 841.609 360.708 831.714L957.16 555.493C980.19 544.827 1006.84 545.309 1029.47 556.8L1367 728.199M1 716.273L293.146 842.058C314.773 851.37 339.341 851.037 360.708 841.142L957.16 564.921C980.19 554.255 1006.84 554.737 1029.47 566.228L1367 737.627M1 725.701L293.146 851.486C314.773 860.798 339.341 860.465 360.708 850.57L957.16 574.349C980.19 563.683 1006.84 564.165 1029.47 575.656L1367 747.055M1 735.129L293.146 860.914C314.773 870.226 339.341 869.893 360.708 859.998L957.16 583.777C980.19 573.111 1006.84 573.593 1029.47 585.085L1367 756.483M1 744.557L293.146 870.342C314.773 879.654 339.341 879.321 360.708 869.426L957.16 593.205C980.19 582.539 1006.84 583.021 1029.47 594.513L1367 765.911M1 753.985L293.146 879.77C314.773 889.082 339.341 888.749 360.708 878.854L957.16 602.633C980.19 591.967 1006.84 592.449 1029.47 603.941L1367 775.339M1 763.413L293.146 889.199C314.773 898.51 339.341 898.177 360.708 888.282L957.16 612.061C980.19 601.395 1006.84 601.877 1029.47 613.369L1367 784.767M1 772.841L293.146 898.627C314.773 907.938 339.341 907.605 360.708 897.71L957.16 621.489C980.19 610.823 1006.84 611.305 1029.47 622.797L1367 794.195M1 782.269L293.146 908.055C314.773 917.366 339.341 917.033 360.708 907.138L957.16 630.917C980.19 620.252 1006.84 620.733 1029.47 632.225L1367 803.623" stroke="url(#paint0_linear_639_2757)" stroke-width="1.29417"/>
<defs>
<linearGradient id="paint0_linear_639_2757" x1="1367" y1="186" x2="1" y2="186" gradientUnits="userSpaceOnUse">
<stop stop-color="white" stop-opacity="0.2"/>
<stop offset="0.253881" stop-color="white"/>
<stop offset="0.669819" stop-color="white" stop-opacity="0.2"/>
<stop offset="1" stop-color="white"/>
</linearGradient>
</defs>
</svg>
