<svg width="31" height="32" viewBox="0 0 31 32" fill="none" xmlns="http://www.w3.org/2000/svg">
<path d="M15.5 29.6802C22.8566 29.6802 28.8203 23.7165 28.8203 16.3599C28.8203 9.00326 22.8566 3.03955 15.5 3.03955C8.14339 3.03955 2.17969 9.00326 2.17969 16.3599C2.17969 23.7165 8.14339 29.6802 15.5 29.6802Z" stroke="black" stroke-width="1.5"/>
<path d="M11.1484 9.8208C11.9933 5.70618 13.6253 2.91846 15.5 2.91846C18.242 2.91846 20.4648 8.88215 20.4648 16.2388C20.4648 17.2801 20.4203 18.2936 20.336 19.2661M10.6562 13.3016C10.577 14.2466 10.5352 15.2296 10.5352 16.2388C10.5352 23.5954 12.758 29.5591 15.5 29.5591C17.3658 29.5591 18.9913 26.7977 19.8396 22.715M9.08203 11.8872C4.96741 12.732 2.17969 14.3641 2.17969 16.2388C2.17969 18.9808 8.14339 21.2036 15.5 21.2036C16.4982 21.2036 17.4708 21.1627 18.4062 21.0851M12.7148 11.3826C13.6131 11.3114 14.5448 11.2739 15.5 11.2739C22.8566 11.2739 28.8203 13.4968 28.8203 16.2388C28.8203 18.1318 25.9778 19.7774 21.7969 20.6149" stroke="black" stroke-width="1.5"/>
<path d="M11 13.8599C12.3807 13.8599 13.5 12.7406 13.5 11.3599C13.5 9.97915 12.3807 8.85986 11 8.85986C9.61929 8.85986 8.5 9.97915 8.5 11.3599C8.5 12.7406 9.61929 13.8599 11 13.8599Z" fill="#FF5B00"/>
<path d="M20 23.8599C21.3807 23.8599 22.5 22.7406 22.5 21.3599C22.5 19.9792 21.3807 18.8599 20 18.8599C18.6193 18.8599 17.5 19.9792 17.5 21.3599C17.5 22.7406 18.6193 23.8599 20 23.8599Z" fill="#FF5B00"/>
</svg>
